<svg xmlns="http://www.w3.org/2000/svg" style="max-width:850px" viewBox="-50 -10 850 336">
  <path stroke="#999" stroke-width=".5" d="M75 5v320" class="actor-line"/>
  <rect width="150" height="65" fill="#eaeaea" stroke="#666" rx="3" ry="3" class="actor"/>
  <text x="75" y="32.5" dominant-baseline="central" alignment-baseline="central" class="actor" text-anchor="middle">
    <tspan x="75" dy="0">KiteA</tspan>
  </text>
  <path stroke="#999" stroke-width=".5" d="M275 5v320" class="actor-line"/>
  <rect width="150" height="65" x="200" fill="#eaeaea" stroke="#666" rx="3" ry="3" class="actor"/>
  <text x="275" y="32.5" dominant-baseline="central" alignment-baseline="central" class="actor" text-anchor="middle">
    <tspan x="275" dy="0">KiteTransportClient</tspan>
  </text>
  <path stroke="#999" stroke-width=".5" d="M475 5v320" class="actor-line"/>
  <rect width="150" height="65" x="400" fill="#eaeaea" stroke="#666" rx="3" ry="3" class="actor"/>
  <text x="475" y="32.5" dominant-baseline="central" alignment-baseline="central" class="actor" text-anchor="middle">
    <tspan x="475" dy="0">KiteTransportServer</tspan>
  </text>
  <path stroke="#999" stroke-width=".5" d="M675 5v320" class="actor-line"/>
  <rect width="150" height="65" x="600" fill="#eaeaea" stroke="#666" rx="3" ry="3" class="actor"/>
  <text x="675" y="32.5" dominant-baseline="central" alignment-baseline="central" class="actor" text-anchor="middle">
    <tspan x="675" dy="0">KiteB</tspan>
  </text>
  <defs>
    <marker id="a" refX="5" refY="2" markerWidth="6" markerHeight="4" orient="auto">
      <path d="M0 0v4l6-2z"/>
    </marker>
  </defs>
  <defs>
    <marker id="b" markerWidth="15" markerHeight="8" orient="auto" refX="16" refY="4">
      <path stroke="#000" d="M9 2v4l7-2z" stroke-dasharray="0 0"/>
      <path fill="none" stroke="#000" d="M0 1l6 6m0-6L0 7" stroke-dasharray="0 0"/>
    </marker>
  </defs>
  <text x="175" y="93" class="messageText" text-anchor="middle">
    connect(uri)
  </text>
  <path fill="none" stroke="#000" stroke-width="2" d="M75 100h200" class="messageLine0" marker-end="url(#a)"/>
  <text x="375" y="128" class="messageText" text-anchor="middle">
    connect using uri
  </text>
  <path fill="none" stroke="#000" stroke-width="2" d="M275 135h200" class="messageLine0" marker-end="url(#a)"/>
  <text x="575" y="163" class="messageText" text-anchor="middle">
    connection
  </text>
  <path fill="none" stroke="#000" stroke-width="2" d="M475 170h200" class="messageLine0" marker-end="url(#b)"/>
  <text x="375" y="198" class="messageText" text-anchor="middle">
    success
  </text>
  <path fill="none" stroke="#000" stroke-width="2" d="M475 205H275" class="messageLine1" marker-end="url(#a)" stroke-dasharray="3 3"/>
  <text x="175" y="233" class="messageText" text-anchor="middle">
    connection
  </text>
  <path fill="none" stroke="#000" stroke-width="2" d="M275 240H75" class="messageLine1" marker-end="url(#b)" stroke-dasharray="3 3"/>
  <rect width="150" height="65" y="260" fill="#eaeaea" stroke="#666" rx="3" ry="3" class="actor"/>
  <text x="75" y="292.5" dominant-baseline="central" alignment-baseline="central" class="actor" text-anchor="middle">
    <tspan x="75" dy="0">KiteA</tspan>
  </text>
  <rect width="150" height="65" x="200" y="260" fill="#eaeaea" stroke="#666" rx="3" ry="3" class="actor"/>
  <text x="275" y="292.5" dominant-baseline="central" alignment-baseline="central" class="actor" text-anchor="middle">
    <tspan x="275" dy="0">KiteTransportClient</tspan>
  </text>
  <rect width="150" height="65" x="400" y="260" fill="#eaeaea" stroke="#666" rx="3" ry="3" class="actor"/>
  <text x="475" y="292.5" dominant-baseline="central" alignment-baseline="central" class="actor" text-anchor="middle">
    <tspan x="475" dy="0">KiteTransportServer</tspan>
  </text>
  <rect width="150" height="65" x="600" y="260" fill="#eaeaea" stroke="#666" rx="3" ry="3" class="actor"/>
  <text x="675" y="292.5" dominant-baseline="central" alignment-baseline="central" class="actor" text-anchor="middle">
    <tspan x="675" dy="0">KiteB</tspan>
  </text>
</svg>

